<?xml version="1.0"?>
<svg xmlns="http://www.w3.org/2000/svg" xmlns:xlink="http://www.w3.org/1999/xlink" version="1.1" id="Capa_1" x="0px" y="0px" viewBox="0 0 21.165 21.165" style="enable-background:new 0 0 21.165 21.165;" xml:space="preserve" width="512px" height="512px" class=""><g transform="matrix(1 0 0 1 0 1.77636e-15)"><g>
	<path d="M0.48,21.165L1.957,0H15.18c0,0,5.718,0.773,5.496,6.163c0,0,0.375,3.302-3.955,5.78c-0.703,0.401-1.435,0.585-2.404,0.926   l-2.77,0.21L8.369,13.1L7.697,9.38l3.411,0.03l0.853,0.009c0,0,0.447-0.089,1.029-0.312c1.06-0.406,2.551-1.264,2.566-2.867   c0,0-0.076-2.791-3.216-2.791c-3.141,0-5.887-0.079-5.887-0.079L5.206,21.165H0.48z" data-original="#000000" class="active-path" data-old_color="#000000" fill="#DE3E3E"/>
	<g>
	</g>
	<g>
	</g>
	<g>
	</g>
	<g>
	</g>
	<g>
	</g>
	<g>
	</g>
	<g>
	</g>
	<g>
	</g>
	<g>
	</g>
	<g>
	</g>
	<g>
	</g>
	<g>
	</g>
	<g>
	</g>
	<g>
	</g>
	<g>
	</g>
</g></g> </svg>
